<svg id="svg" version="1.1" xmlns="http://www.w3.org/2000/svg" xmlns:xlink="http://www.w3.org/1999/xlink" width="400" height="400" viewBox="0, 0, 400,400"><g id="svgg"><path id="path0" d="M162.583 35.227 C 162.438 35.462,162.042 35.548,161.703 35.418 C 161.192 35.222,161.173 35.286,161.592 35.791 C 162.237 36.568,162.286 36.560,162.800 35.600 C 163.240 34.778,163.056 34.462,162.583 35.227 M253.789 39.568 C 254.053 40.006,253.956 40.074,253.366 39.867 C 252.623 39.606,252.624 39.616,253.376 40.199 C 254.750 41.262,255.466 40.638,254.123 39.549 C 253.546 39.080,253.497 39.083,253.789 39.568 M103.200 61.600 C 103.200 61.820,103.006 61.955,102.768 61.900 C 102.530 61.845,102.060 62.250,101.724 62.800 C 101.145 63.746,101.148 63.757,101.773 63.000 C 102.137 62.560,102.637 62.200,102.884 62.200 C 103.131 62.200,103.408 61.975,103.500 61.700 C 103.592 61.425,103.562 61.200,103.433 61.200 C 103.305 61.200,103.200 61.380,103.200 61.600 M190.000 67.073 C 184.643 67.469,173.680 69.218,169.225 70.386 C 162.014 72.278,159.134 73.136,154.953 74.639 C 82.720 100.607,47.186 182.678,77.729 253.000 C 104.076 313.662,171.094 345.875,235.000 328.595 C 311.480 307.916,353.284 224.273,323.877 150.771 C 307.817 110.631,274.761 81.857,231.744 70.572 C 220.210 67.547,203.044 66.108,190.000 67.073 M70.535 91.300 C 70.073 92.039,70.015 92.838,70.442 92.574 C 70.646 92.448,70.716 92.188,70.598 91.997 C 70.480 91.806,70.702 91.464,71.092 91.237 C 71.481 91.010,71.586 90.819,71.324 90.812 C 71.062 90.805,70.707 91.025,70.535 91.300 M213.200 100.957 C 271.454 109.569,309.443 163.030,297.935 220.200 C 290.212 258.564,259.356 289.748,221.200 297.753 C 185.001 305.347,148.281 293.012,124.294 265.200 C 82.813 217.105,96.440 142.635,152.281 112.256 C 164.928 105.377,175.045 102.377,192.800 100.243 C 195.725 99.891,209.177 100.362,213.200 100.957 M62.000 102.200 C 61.726 102.530,61.659 102.803,61.851 102.806 C 62.043 102.809,61.930 103.003,61.600 103.237 C 61.067 103.614,61.067 103.643,61.600 103.497 C 61.930 103.407,62.203 103.168,62.206 102.967 C 62.209 102.765,62.355 102.375,62.530 102.100 C 62.972 101.404,62.603 101.473,62.000 102.200 M359.534 145.514 C 359.828 145.721,360.039 146.045,360.004 146.235 C 359.969 146.425,360.178 146.643,360.470 146.720 C 360.904 146.835,360.903 146.793,360.466 146.486 C 360.172 146.279,359.961 145.955,359.996 145.765 C 360.031 145.575,359.822 145.357,359.530 145.280 C 359.096 145.165,359.097 145.207,359.534 145.514 M365.517 167.661 C 365.834 168.068,365.878 168.376,365.630 168.461 C 365.398 168.541,365.367 168.827,365.557 169.134 C 365.809 169.539,365.941 169.470,366.103 168.849 C 366.232 168.354,366.056 167.825,365.659 167.515 C 365.079 167.062,365.062 167.080,365.517 167.661 M368.142 186.651 C 367.522 186.905,367.953 188.400,368.647 188.400 C 368.951 188.400,369.200 188.209,369.200 187.976 C 369.200 187.743,368.992 187.682,368.737 187.839 C 368.420 188.035,368.345 187.854,368.500 187.263 C 368.624 186.788,368.697 186.414,368.663 186.432 C 368.628 186.449,368.394 186.548,368.142 186.651 M30.934 189.027 C 30.802 189.372,30.888 189.848,31.125 190.085 C 31.432 190.392,31.486 190.252,31.315 189.595 C 31.148 188.956,31.216 188.762,31.537 188.961 C 31.792 189.118,32.000 189.057,32.000 188.824 C 32.000 188.171,31.205 188.322,30.934 189.027 M368.406 196.900 C 368.420 198.042,369.188 198.626,369.194 197.500 C 369.197 196.895,369.020 196.400,368.800 196.400 C 368.580 196.400,368.403 196.625,368.406 196.900 M368.649 202.330 C 368.472 202.842,368.433 203.367,368.563 203.497 C 368.978 203.911,369.270 203.300,369.118 202.334 L 368.971 201.400 368.649 202.330 M368.267 211.067 C 368.120 211.213,368.014 211.708,368.032 212.167 C 368.049 212.625,368.154 212.774,368.266 212.498 C 368.377 212.221,368.616 212.086,368.797 212.198 C 368.978 212.310,369.031 212.041,368.916 211.601 C 368.684 210.713,368.649 210.684,368.267 211.067 M365.714 231.300 C 365.814 231.575,365.604 232.160,365.248 232.600 C 364.609 233.389,364.613 233.389,365.473 232.662 C 365.953 232.257,366.249 231.672,366.130 231.362 C 365.864 230.667,365.464 230.607,365.714 231.300 M361.303 248.933 C 360.976 249.652,360.998 249.867,361.401 249.867 C 361.701 249.867,361.826 249.611,361.694 249.268 C 361.546 248.881,361.628 248.770,361.927 248.955 C 362.230 249.142,362.308 249.026,362.153 248.621 C 361.843 247.815,361.806 247.829,361.303 248.933 M340.030 293.764 C 339.669 294.199,339.680 294.398,340.081 294.629 C 340.366 294.793,340.468 294.782,340.306 294.604 C 340.145 294.425,340.325 294.042,340.706 293.752 C 341.088 293.463,341.197 293.220,340.949 293.213 C 340.701 293.206,340.287 293.454,340.030 293.764 M332.000 305.200 C 331.493 305.640,331.257 306.000,331.477 306.000 C 331.696 306.000,332.202 305.640,332.600 305.200 C 332.998 304.760,333.234 304.400,333.123 304.400 C 333.013 304.400,332.507 304.760,332.000 305.200 M101.606 337.051 C 101.597 337.726,102.681 338.517,102.971 338.047 C 103.104 337.832,103.030 337.542,102.807 337.404 C 102.583 337.266,102.397 337.298,102.394 337.476 C 102.391 337.654,102.213 337.530,102.000 337.200 C 101.787 336.870,101.609 336.803,101.606 337.051 M186.302 367.866 C 186.579 367.977,186.714 368.216,186.602 368.397 C 186.490 368.578,186.787 368.624,187.262 368.500 C 187.853 368.345,188.035 368.420,187.839 368.737 C 187.682 368.992,187.743 369.200,187.976 369.200 C 188.786 369.200,188.394 368.092,187.500 367.852 C 186.433 367.566,185.584 367.576,186.302 367.866 M211.028 368.355 C 210.908 368.550,211.167 368.803,211.605 368.917 C 212.043 369.032,212.310 368.978,212.198 368.797 C 212.086 368.616,212.221 368.377,212.498 368.266 C 212.774 368.154,212.606 368.049,212.124 368.032 C 211.642 368.014,211.149 368.160,211.028 368.355 M196.400 368.800 C 196.400 369.020,196.895 369.197,197.500 369.194 C 198.357 369.189,198.468 369.102,198.000 368.800 C 197.217 368.294,196.400 368.294,196.400 368.800 M202.200 368.800 C 202.064 369.020,202.323 369.200,202.776 369.200 C 203.229 369.200,203.600 369.020,203.600 368.800 C 203.600 368.580,203.341 368.400,203.024 368.400 C 202.707 368.400,202.336 368.580,202.200 368.800 " stroke="none" fill="#bc3c9c" fill-rule="evenodd"></path><path id="path1" d="M190.054 134.214 C 145.239 141.210,120.411 189.209,140.609 229.800 C 164.973 278.762,235.058 278.700,259.592 229.694 C 283.574 181.788,242.917 125.962,190.054 134.214 " stroke="none" fill="#54347c" fill-rule="evenodd"></path><path id="path2" d="M192.800 100.243 C 172.031 102.739,158.879 107.303,144.375 117.046 C 86.071 156.214,85.355 242.147,143.000 282.080 C 199.430 321.172,277.953 292.968,296.349 227.000 C 313.933 163.940,267.172 101.363,201.600 100.205 C 197.530 100.133,193.570 100.150,192.800 100.243 M209.904 134.222 C 264.579 142.952,285.947 210.043,246.144 248.008 C 207.307 285.053,143.550 263.823,134.398 210.800 C 126.807 166.819,165.879 127.192,209.904 134.222 " stroke="none" fill="#933b8b" fill-rule="evenodd"></path><path id="path3" d="M190.177 31.163 C 190.300 31.362,190.013 31.424,189.538 31.300 C 188.947 31.145,188.765 31.220,188.961 31.537 C 189.118 31.792,189.057 32.000,188.824 32.000 C 188.591 32.000,188.400 31.820,188.400 31.600 C 188.400 31.380,188.046 31.200,187.613 31.200 C 187.029 31.200,186.893 31.382,187.087 31.900 C 187.317 32.513,187.266 32.532,186.675 32.051 C 186.304 31.749,186.000 31.659,186.001 31.851 C 186.001 32.043,184.201 32.156,182.001 32.102 C 179.707 32.046,178.000 32.164,178.000 32.379 C 178.000 32.585,177.631 32.683,177.180 32.596 C 176.729 32.509,176.267 32.680,176.154 32.975 C 176.041 33.271,175.555 33.522,175.074 33.534 C 174.593 33.546,173.064 33.565,171.675 33.576 C 169.845 33.590,169.230 33.724,169.440 34.065 C 169.641 34.390,169.509 34.450,169.015 34.261 C 168.621 34.110,168.050 34.193,167.745 34.445 C 167.441 34.698,166.299 34.884,165.206 34.860 C 163.599 34.823,163.138 34.968,162.790 35.619 C 162.553 36.061,162.186 36.315,161.973 36.184 C 161.761 36.052,161.689 35.779,161.814 35.577 C 161.939 35.375,161.762 35.316,161.421 35.447 C 161.079 35.578,160.800 35.829,160.800 36.005 C 160.800 36.181,160.439 36.231,159.998 36.115 C 159.557 36.000,158.972 36.075,158.698 36.283 C 158.424 36.490,157.701 36.612,157.091 36.553 C 156.481 36.495,156.076 36.599,156.191 36.786 C 156.307 36.973,156.061 37.036,155.646 36.928 C 155.230 36.819,154.769 36.926,154.622 37.165 C 154.474 37.404,153.903 37.600,153.353 37.600 C 152.796 37.600,152.461 37.775,152.597 37.995 C 152.737 38.222,152.577 38.289,152.220 38.152 C 151.372 37.827,149.511 38.332,149.804 38.807 C 149.935 39.018,149.780 39.091,149.461 38.968 C 149.142 38.846,148.777 38.914,148.650 39.119 C 148.523 39.325,147.965 39.406,147.410 39.300 C 146.655 39.155,146.400 39.276,146.400 39.777 C 146.400 40.146,146.220 40.336,146.000 40.200 C 145.780 40.064,145.600 40.133,145.600 40.353 C 145.600 40.574,145.211 40.679,144.736 40.588 C 144.237 40.492,143.634 40.712,143.307 41.111 C 142.995 41.490,142.855 41.575,142.994 41.300 C 143.365 40.567,142.975 40.679,141.148 41.833 C 140.249 42.401,139.647 42.647,139.812 42.381 C 140.005 42.068,139.914 41.968,139.556 42.098 C 139.250 42.209,139.045 42.502,139.100 42.750 C 139.155 42.997,138.975 43.211,138.700 43.226 C 136.116 43.357,133.293 44.360,133.873 44.939 C 134.016 45.083,133.801 45.200,133.395 45.200 C 132.384 45.200,130.000 46.090,130.000 46.468 C 130.000 46.637,129.730 46.671,129.400 46.545 C 129.048 46.410,128.800 46.539,128.799 46.857 C 128.799 47.184,128.281 47.437,127.500 47.492 C 126.786 47.542,126.021 47.827,125.801 48.125 C 125.580 48.424,124.898 48.793,124.284 48.945 C 123.670 49.098,123.278 49.403,123.413 49.622 C 123.549 49.841,123.511 49.976,123.330 49.923 C 122.487 49.675,118.675 51.728,119.102 52.200 C 119.266 52.380,119.175 52.399,118.901 52.241 C 118.363 51.931,116.649 52.916,117.042 53.309 C 117.172 53.439,116.922 53.452,116.485 53.338 C 116.048 53.224,115.552 53.354,115.383 53.627 C 115.173 53.968,115.240 54.022,115.600 53.800 C 115.946 53.586,116.027 53.633,115.838 53.938 C 115.681 54.192,115.141 54.400,114.638 54.400 C 114.134 54.400,113.313 54.755,112.814 55.188 C 112.314 55.622,111.566 56.084,111.152 56.215 C 110.739 56.346,110.400 56.622,110.400 56.827 C 110.400 57.032,110.113 57.200,109.763 57.200 C 109.412 57.200,109.034 57.548,108.923 57.972 C 108.803 58.432,108.494 58.657,108.161 58.530 C 107.852 58.411,107.600 58.524,107.600 58.781 C 107.600 59.037,107.416 59.133,107.190 58.994 C 106.965 58.855,106.830 58.979,106.890 59.270 C 106.956 59.586,106.559 59.851,105.909 59.926 C 105.309 59.995,104.464 60.501,104.033 61.049 C 103.165 62.153,100.859 64.076,101.343 63.293 C 101.764 62.612,101.340 62.676,100.500 63.421 C 100.115 63.762,99.350 64.406,98.800 64.851 C 98.250 65.297,98.053 65.529,98.362 65.369 C 98.722 65.181,98.825 65.236,98.649 65.521 C 98.498 65.765,98.139 65.875,97.851 65.764 C 97.564 65.654,97.074 65.887,96.764 66.282 C 96.238 66.952,96.253 66.960,97.000 66.400 C 97.745 65.842,97.761 65.849,97.243 66.510 C 96.937 66.900,96.598 67.131,96.490 67.024 C 96.153 66.686,94.766 67.621,95.012 68.020 C 95.142 68.229,94.883 68.400,94.438 68.400 C 93.992 68.400,93.435 68.760,93.200 69.200 C 92.965 69.640,92.592 70.000,92.372 70.000 C 91.862 70.000,89.627 72.271,89.840 72.573 C 89.928 72.698,89.886 72.716,89.747 72.614 C 89.314 72.295,88.000 73.198,88.000 73.814 C 88.000 74.136,87.782 74.355,87.515 74.300 C 87.248 74.245,86.845 74.605,86.620 75.100 C 86.395 75.595,86.012 76.000,85.770 76.000 C 85.091 76.000,82.126 78.972,81.809 79.970 C 81.654 80.460,81.430 80.763,81.311 80.644 C 80.943 80.276,79.600 81.195,79.600 81.814 C 79.600 82.136,79.330 82.400,79.000 82.400 C 78.670 82.400,78.400 82.581,78.400 82.803 C 78.400 83.024,77.956 83.591,77.414 84.063 C 76.871 84.535,76.541 85.104,76.679 85.328 C 76.829 85.571,76.673 85.637,76.291 85.490 C 75.940 85.355,75.595 85.394,75.526 85.577 C 75.457 85.759,74.500 86.935,73.400 88.190 C 72.300 89.445,71.394 90.591,71.386 90.736 C 71.349 91.419,70.315 92.800,69.839 92.800 C 69.271 92.800,66.958 95.975,67.122 96.530 C 67.176 96.711,67.056 96.758,66.855 96.634 C 66.356 96.325,65.468 97.463,65.795 97.992 C 65.941 98.227,65.911 98.370,65.730 98.310 C 65.548 98.249,65.400 98.348,65.400 98.528 C 65.400 98.709,65.081 99.035,64.692 99.253 C 64.302 99.471,64.088 99.818,64.215 100.025 C 64.343 100.231,64.178 100.400,63.849 100.400 C 63.521 100.400,63.023 101.034,62.742 101.809 C 62.462 102.584,61.826 103.484,61.329 103.810 C 60.735 104.199,60.513 104.629,60.681 105.066 C 60.852 105.513,60.783 105.636,60.468 105.442 C 60.193 105.272,60.000 105.392,60.000 105.734 C 60.000 106.053,59.719 106.422,59.375 106.554 C 59.031 106.686,58.852 106.960,58.977 107.163 C 59.102 107.366,59.066 107.592,58.896 107.666 C 58.388 107.887,56.000 111.320,56.000 111.830 C 56.000 112.090,55.726 112.530,55.390 112.808 C 55.055 113.086,54.866 113.400,54.971 113.505 C 55.076 113.609,54.945 113.938,54.681 114.234 C 53.166 115.930,51.924 118.344,52.262 118.935 C 52.409 119.191,52.380 119.266,52.200 119.102 C 51.827 118.765,51.723 118.938,48.602 125.078 C 47.292 127.654,46.452 129.761,46.624 130.040 C 46.828 130.368,46.755 130.419,46.399 130.199 C 46.009 129.958,45.931 130.093,46.096 130.724 C 46.232 131.245,46.141 131.539,45.859 131.486 C 45.607 131.439,45.343 131.988,45.274 132.708 C 45.205 133.427,44.980 133.911,44.774 133.784 C 44.448 133.583,44.196 134.773,44.363 135.730 C 44.394 135.911,44.248 135.953,44.039 135.824 C 43.616 135.563,42.988 137.121,43.364 137.498 C 43.495 137.628,43.304 138.064,42.940 138.467 C 42.129 139.362,40.775 143.237,41.093 143.751 C 41.220 143.956,41.110 143.991,40.848 143.830 C 40.512 143.622,40.429 143.844,40.564 144.589 C 40.688 145.275,40.554 145.720,40.180 145.863 C 39.863 145.985,39.704 146.245,39.826 146.442 C 39.948 146.639,39.859 146.800,39.628 146.800 C 39.398 146.800,39.211 147.205,39.214 147.700 C 39.223 149.139,38.976 150.359,38.611 150.692 C 38.424 150.861,38.418 150.747,38.598 150.438 C 38.803 150.084,38.770 149.971,38.508 150.133 C 38.279 150.275,37.972 151.194,37.824 152.177 C 37.677 153.160,37.278 154.523,36.937 155.205 C 36.597 155.887,36.419 156.831,36.543 157.302 C 36.666 157.773,36.618 158.348,36.437 158.579 C 35.922 159.236,35.675 161.158,36.087 161.296 C 36.291 161.364,36.079 161.901,35.616 162.489 C 34.992 163.282,34.803 164.015,34.887 165.318 C 34.958 166.424,34.782 167.339,34.412 167.785 C 34.086 168.178,33.776 169.501,33.718 170.747 C 33.494 175.519,33.427 175.981,32.940 176.168 C 32.664 176.274,32.509 176.729,32.596 177.180 C 32.683 177.631,32.577 178.000,32.360 178.000 C 32.117 178.000,32.015 179.608,32.094 182.169 C 32.165 184.462,32.088 186.255,31.923 186.153 C 31.758 186.051,31.500 186.460,31.349 187.063 C 31.174 187.759,31.242 188.214,31.537 188.312 C 31.792 188.397,32.000 188.642,32.000 188.857 C 32.000 189.072,31.792 189.118,31.537 188.961 C 31.220 188.765,31.145 188.947,31.300 189.538 C 31.424 190.013,31.362 190.300,31.163 190.177 C 30.963 190.054,30.800 190.683,30.800 191.576 C 30.800 192.469,30.986 193.200,31.214 193.200 C 31.500 193.200,31.500 193.440,31.214 193.974 C 30.641 195.044,30.667 205.870,31.243 206.226 C 31.560 206.422,31.549 206.585,31.204 206.798 C 30.382 207.306,31.099 213.212,31.944 212.896 C 32.522 212.680,32.532 212.734,32.032 213.348 C 31.720 213.731,31.630 214.014,31.832 213.975 C 32.666 213.817,32.870 214.033,32.410 214.588 C 31.667 215.483,32.112 223.588,32.976 224.908 C 33.396 225.548,33.674 226.924,33.735 228.661 C 33.829 231.343,34.176 232.586,34.734 232.241 C 34.887 232.146,34.957 233.149,34.889 234.469 C 34.806 236.060,34.905 236.782,35.182 236.611 C 35.434 236.456,35.559 236.719,35.499 237.277 C 35.433 237.897,35.586 238.160,35.968 238.077 C 36.387 237.987,36.425 238.092,36.115 238.477 C 35.656 239.047,35.903 241.707,36.387 241.408 C 36.551 241.307,36.602 241.656,36.501 242.183 C 36.400 242.711,36.696 244.236,37.159 245.573 C 37.621 246.909,38.000 248.298,38.000 248.657 C 38.000 249.017,38.315 249.570,38.700 249.886 C 39.085 250.201,39.144 250.326,38.831 250.163 C 38.387 249.933,38.403 250.069,38.901 250.780 C 39.252 251.281,39.444 251.941,39.327 252.246 C 39.210 252.551,39.333 252.800,39.600 252.800 C 39.875 252.800,39.982 253.070,39.847 253.421 C 39.711 253.777,39.778 253.937,40.005 253.797 C 40.417 253.542,40.539 253.983,40.475 255.500 C 40.455 255.995,40.628 256.400,40.862 256.400 C 41.095 256.400,41.184 256.664,41.060 256.987 C 40.936 257.310,41.035 257.698,41.279 257.849 C 41.572 258.030,41.612 257.931,41.398 257.562 C 41.218 257.253,41.215 257.129,41.390 257.287 C 41.565 257.446,41.766 258.214,41.836 258.996 C 41.986 260.667,42.308 261.304,42.838 260.977 C 43.048 260.847,43.194 260.889,43.163 261.070 C 42.991 262.061,43.249 263.617,43.555 263.428 C 43.750 263.307,43.885 263.522,43.855 263.904 C 43.825 264.287,44.014 264.559,44.275 264.508 C 44.555 264.454,44.686 264.751,44.594 265.231 C 44.396 266.260,45.044 267.998,45.844 268.583 C 46.181 268.829,46.399 269.207,46.328 269.423 C 46.202 269.811,47.336 272.833,48.047 274.000 C 48.247 274.330,48.606 275.095,48.845 275.700 C 49.083 276.304,49.440 276.699,49.639 276.576 C 49.838 276.453,50.000 276.622,50.000 276.950 C 50.000 277.632,50.491 278.783,51.643 280.800 C 52.083 281.570,52.345 281.876,52.226 281.479 C 52.100 281.062,52.175 280.861,52.404 281.002 C 52.620 281.136,52.912 281.962,53.052 282.836 C 53.192 283.711,53.392 284.342,53.496 284.237 C 53.856 283.877,54.678 284.979,54.515 285.604 C 54.425 285.949,54.722 286.567,55.175 286.978 C 55.629 287.388,56.000 288.056,56.000 288.462 C 56.000 288.868,56.162 289.155,56.360 289.100 C 56.558 289.045,56.708 289.090,56.692 289.200 C 56.605 289.833,57.709 291.183,58.120 290.947 C 58.384 290.796,58.470 290.816,58.311 290.992 C 57.984 291.353,59.189 293.600,59.710 293.600 C 59.895 293.600,59.944 293.768,59.817 293.972 C 59.691 294.177,60.037 294.852,60.587 295.472 C 62.256 297.353,62.400 297.551,62.400 297.963 C 62.400 298.180,62.850 298.844,63.400 299.438 C 63.950 300.031,64.400 300.701,64.400 300.925 C 64.400 301.150,64.523 301.210,64.673 301.060 C 64.824 300.910,65.180 301.342,65.466 302.022 C 65.792 302.796,66.160 303.148,66.454 302.966 C 66.714 302.806,66.817 302.848,66.686 303.061 C 66.555 303.273,66.842 303.895,67.324 304.442 C 67.806 304.990,68.020 305.159,67.800 304.819 C 67.448 304.275,67.487 304.268,68.118 304.764 C 68.513 305.074,68.749 305.556,68.642 305.835 C 68.535 306.114,68.707 306.557,69.024 306.820 C 69.477 307.196,69.608 307.181,69.640 306.749 C 69.662 306.447,69.805 306.650,69.958 307.200 C 70.111 307.750,70.438 308.200,70.685 308.200 C 70.931 308.200,71.283 308.364,71.467 308.564 C 71.660 308.776,71.590 308.808,71.300 308.641 C 71.025 308.482,70.800 308.534,70.800 308.757 C 70.800 308.979,71.115 309.344,71.500 309.568 C 71.885 309.792,72.074 309.981,71.919 309.988 C 71.765 309.995,72.101 310.495,72.667 311.100 C 73.233 311.705,73.900 312.140,74.148 312.067 C 74.397 311.993,74.476 312.058,74.324 312.209 C 73.970 312.563,74.210 312.848,79.000 317.750 C 81.200 320.002,83.326 321.968,83.725 322.120 C 84.124 322.271,84.339 322.576,84.202 322.797 C 84.065 323.019,84.109 323.200,84.300 323.200 C 84.491 323.200,84.996 323.483,85.424 323.830 C 85.851 324.176,85.930 324.343,85.600 324.200 C 85.270 324.057,85.360 324.218,85.800 324.557 C 86.240 324.896,86.817 325.359,87.083 325.586 C 87.349 325.814,87.764 326.000,88.007 326.000 C 88.249 326.000,88.349 326.160,88.228 326.355 C 88.107 326.550,88.277 326.932,88.604 327.204 C 88.932 327.476,89.200 327.562,89.200 327.395 C 89.200 327.228,89.574 327.568,90.032 328.150 C 90.490 328.732,91.017 329.113,91.204 328.997 C 91.392 328.882,91.675 328.998,91.834 329.255 C 92.015 329.548,91.950 329.616,91.662 329.438 C 90.640 328.806,91.291 329.574,92.668 330.625 C 93.476 331.241,93.996 331.487,93.825 331.173 C 93.653 330.858,93.975 331.140,94.542 331.800 C 95.108 332.460,95.578 332.894,95.586 332.764 C 95.594 332.634,96.454 333.311,97.497 334.269 C 98.541 335.227,99.608 335.929,99.868 335.829 C 100.128 335.729,100.580 335.952,100.871 336.324 C 101.357 336.945,101.335 336.952,100.600 336.400 C 99.853 335.840,99.838 335.848,100.364 336.518 C 100.674 336.913,101.169 337.144,101.464 337.031 C 101.759 336.918,102.000 336.999,102.000 337.213 C 102.000 337.426,102.135 337.555,102.300 337.500 C 102.465 337.445,102.633 337.551,102.673 337.736 C 102.787 338.258,104.154 339.152,104.505 338.935 C 104.678 338.828,104.770 338.939,104.710 339.182 C 104.649 339.425,105.500 340.113,106.600 340.712 C 107.700 341.310,108.746 342.029,108.925 342.308 C 109.103 342.588,109.418 342.712,109.625 342.585 C 109.831 342.457,110.003 342.588,110.006 342.876 C 110.011 343.257,110.118 343.236,110.400 342.800 C 110.714 342.315,110.789 342.372,110.794 343.100 C 110.797 343.595,111.042 344.000,111.339 344.000 C 111.635 344.000,112.293 344.360,112.800 344.800 C 113.307 345.240,113.943 345.600,114.212 345.600 C 114.482 345.600,114.931 345.876,115.211 346.213 C 115.491 346.551,115.915 346.762,116.152 346.683 C 116.390 346.603,117.036 346.957,117.588 347.469 C 118.140 347.981,118.881 348.400,119.235 348.400 C 119.588 348.400,120.293 348.760,120.800 349.200 C 121.307 349.640,121.906 350.000,122.130 350.000 C 122.354 350.000,122.835 350.269,123.199 350.599 C 123.562 350.928,124.342 351.237,124.930 351.286 C 125.519 351.335,126.000 351.605,126.000 351.887 C 126.000 352.169,126.191 352.400,126.424 352.400 C 126.657 352.400,126.733 352.175,126.594 351.900 C 126.455 351.625,126.579 351.680,126.870 352.023 C 127.532 352.801,130.814 354.400,131.750 354.400 C 132.176 354.400,132.336 354.580,132.161 354.863 C 131.965 355.180,132.147 355.255,132.738 355.100 C 133.297 354.954,133.507 355.027,133.335 355.305 C 133.168 355.576,133.311 355.643,133.722 355.485 C 134.081 355.348,134.480 355.406,134.609 355.615 C 134.739 355.825,135.216 356.195,135.671 356.438 C 136.268 356.758,136.421 356.758,136.225 356.440 C 136.067 356.185,136.243 356.000,136.643 356.000 C 137.023 356.000,137.220 356.113,137.082 356.251 C 136.944 356.389,137.489 356.838,138.294 357.248 C 139.422 357.823,139.829 357.880,140.072 357.497 C 140.293 357.149,140.390 357.219,140.394 357.729 C 140.399 358.286,140.659 358.428,141.500 358.333 C 142.204 358.254,142.565 358.385,142.502 358.697 C 142.393 359.243,144.134 359.812,144.750 359.431 C 144.967 359.297,145.263 359.379,145.408 359.613 C 145.591 359.909,145.843 359.896,146.236 359.570 C 146.687 359.196,146.801 359.252,146.805 359.851 C 146.812 360.747,150.161 362.089,152.500 362.133 C 153.325 362.148,154.000 362.284,154.000 362.434 C 154.000 362.927,155.557 363.126,155.749 362.658 C 155.852 362.406,155.951 362.535,155.968 362.945 C 155.994 363.538,156.241 363.655,157.179 363.518 C 157.827 363.423,158.258 363.507,158.135 363.705 C 158.013 363.903,158.247 364.020,158.656 363.965 C 159.065 363.910,160.392 364.166,161.605 364.533 C 162.818 364.901,164.537 365.173,165.424 365.138 C 166.378 365.101,167.471 365.359,168.098 365.770 C 168.681 366.152,169.663 366.424,170.279 366.375 C 170.896 366.326,171.700 366.414,172.066 366.572 C 172.433 366.730,173.243 366.801,173.866 366.730 C 174.512 366.656,175.192 366.846,175.447 367.171 C 175.780 367.597,177.133 367.774,180.763 367.866 C 183.442 367.934,186.031 368.182,186.517 368.417 C 187.388 368.838,187.389 368.835,186.600 368.172 C 185.814 367.512,185.818 367.504,186.800 367.745 C 187.350 367.879,187.935 367.992,188.100 367.995 C 188.265 367.998,188.400 368.270,188.400 368.600 C 188.400 369.323,189.850 369.407,190.135 368.700 C 190.296 368.300,190.343 368.300,190.368 368.700 C 190.412 369.398,196.266 369.402,196.498 368.705 C 196.630 368.311,196.886 368.311,197.751 368.705 C 199.148 369.341,201.376 369.339,202.458 368.700 C 203.135 368.300,203.341 368.300,203.486 368.700 C 203.608 369.039,204.623 369.200,206.633 369.200 C 208.737 369.200,209.602 369.055,209.606 368.700 C 209.610 368.355,209.725 368.379,209.978 368.778 C 210.393 369.434,213.456 368.893,213.333 368.185 C 213.293 367.955,214.830 367.836,217.133 367.888 C 221.585 367.989,224.279 367.696,224.887 367.045 C 225.121 366.794,225.986 366.654,226.809 366.732 C 227.633 366.811,228.416 366.698,228.550 366.481 C 228.684 366.264,229.425 366.172,230.197 366.276 C 231.279 366.422,231.600 366.323,231.600 365.845 C 231.600 365.458,231.826 365.312,232.200 365.455 C 232.530 365.582,232.800 365.506,232.800 365.287 C 232.800 365.060,233.419 364.971,234.237 365.082 C 235.974 365.316,238.504 364.893,238.211 364.417 C 238.094 364.229,238.387 364.176,238.862 364.300 C 239.337 364.424,239.625 364.363,239.502 364.163 C 239.379 363.963,240.145 363.780,241.204 363.756 C 242.263 363.732,243.461 363.570,243.865 363.396 C 244.815 362.986,245.470 362.821,247.283 362.534 C 248.099 362.405,248.729 362.108,248.683 361.873 C 248.637 361.639,248.936 361.375,249.347 361.285 C 249.872 361.171,250.012 361.284,249.818 361.662 C 249.643 362.000,249.737 361.977,250.070 361.600 C 250.362 361.270,250.915 360.985,251.300 360.967 C 253.313 360.871,253.690 360.741,253.862 360.083 C 254.010 359.520,254.356 359.402,255.479 359.533 C 256.461 359.648,256.823 359.561,256.634 359.255 C 256.463 358.979,256.579 358.894,256.939 359.032 C 257.258 359.154,257.638 359.062,257.783 358.827 C 257.928 358.592,258.397 358.400,258.824 358.400 C 259.251 358.400,259.600 358.226,259.600 358.013 C 259.600 357.799,259.879 357.732,260.220 357.863 C 260.576 357.999,261.247 357.720,261.791 357.209 C 262.313 356.718,262.922 356.428,263.143 356.565 C 263.627 356.864,266.468 355.607,266.925 354.892 C 267.103 354.612,267.405 354.479,267.595 354.597 C 268.019 354.859,270.000 353.995,270.000 353.548 C 270.000 353.371,270.270 353.329,270.600 353.455 C 270.930 353.582,271.200 353.486,271.200 353.243 C 271.200 352.999,271.549 352.800,271.976 352.800 C 272.403 352.800,272.866 352.617,273.004 352.393 C 273.142 352.170,273.402 352.078,273.582 352.189 C 273.762 352.300,274.132 352.123,274.404 351.796 C 274.676 351.468,275.214 351.200,275.600 351.200 C 276.369 351.200,277.335 350.268,276.957 349.890 C 276.827 349.760,277.078 349.748,277.515 349.862 C 277.952 349.976,278.448 349.846,278.617 349.573 C 278.831 349.226,278.755 349.174,278.362 349.402 C 278.029 349.595,277.936 349.580,278.133 349.364 C 278.317 349.164,278.587 348.980,278.733 348.956 C 280.444 348.673,281.707 348.185,281.877 347.743 C 281.992 347.444,282.360 347.200,282.696 347.200 C 283.031 347.200,283.957 346.796,284.753 346.302 C 285.549 345.809,286.380 345.404,286.600 345.402 C 286.820 345.401,287.004 345.130,287.009 344.800 C 287.014 344.441,287.312 344.251,287.749 344.327 C 288.151 344.396,288.384 344.297,288.266 344.107 C 288.148 343.916,288.419 343.531,288.868 343.251 C 289.526 342.840,289.623 342.839,289.370 343.249 C 288.987 343.868,291.272 342.277,291.965 341.442 C 292.236 341.115,292.726 340.950,293.053 341.076 C 293.432 341.221,293.726 341.006,293.863 340.480 C 293.985 340.015,294.306 339.742,294.598 339.855 C 294.883 339.964,295.361 339.727,295.658 339.327 C 295.956 338.927,296.449 338.547,296.754 338.482 C 297.545 338.314,302.000 334.827,302.000 334.377 C 302.000 334.169,302.248 334.000,302.551 334.000 C 302.854 334.000,303.403 333.595,303.770 333.100 C 304.137 332.605,304.307 332.459,304.148 332.775 C 303.990 333.091,304.606 332.751,305.518 332.018 C 306.430 331.285,307.094 330.551,306.992 330.388 C 306.891 330.224,307.056 330.115,307.359 330.145 C 308.054 330.214,313.146 325.974,313.177 325.300 C 313.190 325.025,313.376 324.800,313.590 324.800 C 314.158 324.800,319.200 319.794,319.200 319.230 C 319.200 318.968,319.382 318.865,319.603 319.002 C 319.825 319.139,320.161 318.835,320.349 318.326 C 320.538 317.817,320.851 317.412,321.046 317.426 C 321.241 317.441,322.437 316.406,323.705 315.126 C 324.972 313.847,325.940 312.800,325.855 312.800 C 325.769 312.800,326.572 311.900,327.637 310.800 C 328.959 309.436,329.503 308.578,329.350 308.100 C 329.185 307.587,329.225 307.540,329.501 307.924 C 329.846 308.405,331.200 307.019,331.200 306.183 C 331.200 306.049,331.695 305.426,332.300 304.800 C 333.950 303.091,334.800 301.900,334.800 301.295 C 334.800 300.997,334.981 300.865,335.203 301.002 C 335.424 301.139,335.726 300.924,335.874 300.525 C 336.021 300.126,336.335 299.672,336.571 299.515 C 336.987 299.238,337.044 299.069,337.150 297.800 C 337.178 297.470,337.500 297.200,337.867 297.200 C 338.233 297.200,338.419 297.086,338.280 296.947 C 338.141 296.808,338.482 296.336,339.038 295.899 C 339.594 295.461,339.955 294.860,339.841 294.563 C 339.727 294.265,340.031 293.744,340.517 293.403 C 341.003 293.063,341.380 292.653,341.355 292.492 C 341.331 292.332,341.885 291.480,342.588 290.600 C 343.291 289.720,344.114 288.378,344.416 287.617 C 344.718 286.857,345.296 285.904,345.699 285.501 C 346.389 284.811,347.178 283.202,347.361 282.112 C 347.407 281.843,347.598 281.483,347.786 281.312 C 347.974 281.140,347.982 281.253,347.802 281.562 C 347.576 281.952,347.626 282.031,347.965 281.821 C 348.234 281.655,348.358 281.267,348.240 280.960 C 348.122 280.652,348.161 280.400,348.326 280.400 C 348.747 280.400,349.965 278.264,350.119 277.256 C 350.189 276.797,350.400 276.281,350.587 276.110 C 350.775 275.940,350.782 276.053,350.602 276.362 C 350.374 276.755,350.426 276.831,350.773 276.617 C 351.046 276.448,351.181 275.970,351.072 275.555 C 350.964 275.140,351.049 274.800,351.261 274.800 C 351.473 274.800,351.533 274.616,351.394 274.390 C 351.255 274.165,351.371 274.030,351.652 274.090 C 351.933 274.151,352.194 273.975,352.232 273.700 C 352.269 273.425,352.345 273.110,352.400 273.000 C 352.455 272.890,352.527 272.665,352.560 272.500 C 352.594 272.335,352.955 271.699,353.365 271.088 C 353.774 270.476,353.994 269.860,353.853 269.720 C 353.713 269.580,353.896 269.136,354.260 268.734 C 355.099 267.807,356.833 263.577,356.557 263.131 C 356.443 262.946,356.751 262.231,357.241 261.542 C 357.732 260.853,358.133 259.782,358.133 259.162 C 358.133 258.542,358.392 257.935,358.708 257.814 C 359.032 257.690,359.180 257.324,359.046 256.976 C 358.895 256.582,358.972 256.459,359.258 256.636 C 359.566 256.826,359.650 256.525,359.526 255.678 C 359.426 254.998,359.492 254.533,359.672 254.645 C 359.853 254.756,360.000 254.492,360.000 254.057 C 360.000 253.622,360.185 253.205,360.412 253.129 C 360.638 253.054,360.863 252.454,360.912 251.796 C 360.960 251.138,361.180 250.468,361.400 250.306 C 361.649 250.123,361.615 250.010,361.309 250.006 C 360.928 250.001,360.921 249.772,361.278 248.989 C 361.612 248.255,361.828 248.118,362.063 248.489 C 362.270 248.814,362.390 248.544,362.394 247.749 C 362.397 247.061,362.667 245.859,362.993 245.078 C 363.319 244.298,363.665 242.881,363.761 241.930 C 363.857 240.978,364.059 239.885,364.211 239.500 C 364.387 239.052,364.299 238.800,363.966 238.800 C 363.662 238.800,363.768 238.566,364.224 238.232 C 364.837 237.784,365.007 237.155,365.032 235.239 C 365.055 233.450,365.265 232.584,365.832 231.938 C 366.254 231.457,366.375 231.194,366.100 231.355 C 365.825 231.516,365.600 231.472,365.600 231.257 C 365.600 231.042,365.782 230.806,366.005 230.732 C 366.228 230.657,366.453 229.337,366.505 227.798 C 366.568 225.943,366.792 224.850,367.171 224.553 C 367.596 224.221,367.774 222.880,367.864 219.320 C 367.943 216.195,368.196 214.028,368.593 213.079 C 369.331 211.313,369.370 210.135,368.700 209.865 C 368.300 209.704,368.300 209.657,368.700 209.632 C 369.398 209.588,369.402 203.734,368.705 203.502 C 368.311 203.370,368.311 203.114,368.705 202.249 C 369.336 200.864,369.336 199.136,368.705 197.751 C 368.311 196.886,368.311 196.630,368.705 196.498 C 369.396 196.268,369.391 190.544,368.700 190.265 C 368.300 190.104,368.300 190.057,368.700 190.032 C 369.387 189.988,369.336 188.400,368.647 188.400 C 368.342 188.400,367.995 188.026,367.876 187.568 C 367.716 186.956,367.811 186.796,368.238 186.959 C 368.715 187.142,368.737 187.030,368.362 186.329 C 368.105 185.848,367.912 183.754,367.920 181.538 C 367.928 179.372,367.787 177.600,367.605 177.600 C 367.423 177.600,367.376 177.213,367.500 176.740 C 367.631 176.238,367.490 175.697,367.162 175.440 C 366.784 175.144,366.561 173.957,366.481 171.810 C 366.397 169.567,366.170 168.408,365.715 167.906 C 365.305 167.453,365.093 166.575,365.135 165.504 C 365.213 163.514,364.534 161.203,363.869 161.194 C 363.566 161.190,363.592 161.066,363.943 160.844 C 364.262 160.641,364.325 160.401,364.096 160.260 C 363.882 160.127,363.799 159.538,363.912 158.950 C 364.062 158.162,363.984 157.963,363.615 158.191 C 363.248 158.417,363.187 158.272,363.384 157.650 C 363.544 157.146,363.480 156.800,363.227 156.800 C 362.992 156.800,362.800 156.609,362.800 156.376 C 362.800 156.143,363.025 156.088,363.300 156.253 C 363.699 156.493,363.700 156.429,363.303 155.940 C 363.030 155.603,362.925 155.208,363.070 155.063 C 363.215 154.918,363.113 154.800,362.843 154.800 C 362.573 154.800,362.464 154.620,362.600 154.400 C 362.736 154.180,362.661 154.000,362.434 154.000 C 362.186 154.000,362.118 153.511,362.264 152.780 C 362.449 151.855,362.310 151.375,361.687 150.796 C 361.168 150.312,360.945 149.731,361.080 149.216 C 361.210 148.720,361.100 148.400,360.800 148.400 C 360.509 148.400,360.390 148.082,360.509 147.626 C 360.629 147.167,360.475 146.761,360.130 146.629 C 359.811 146.506,359.661 146.224,359.798 146.003 C 359.935 145.781,359.896 145.600,359.710 145.600 C 359.525 145.600,359.400 145.105,359.433 144.500 C 359.517 142.948,358.846 141.705,358.323 142.446 C 358.048 142.836,357.995 142.632,358.145 141.755 C 358.282 140.954,358.092 140.013,357.610 139.115 C 357.199 138.347,356.803 137.378,356.731 136.960 C 356.659 136.542,356.420 136.072,356.200 135.915 C 355.793 135.624,355.738 135.432,355.650 133.976 C 355.623 133.523,355.437 133.254,355.237 133.377 C 355.038 133.500,354.976 133.213,355.100 132.738 C 355.244 132.190,355.172 131.970,354.905 132.135 C 354.404 132.445,353.838 131.306,353.971 130.256 C 354.023 129.847,353.891 129.620,353.678 129.752 C 353.465 129.884,353.315 129.678,353.345 129.296 C 353.375 128.913,353.193 128.639,352.941 128.686 C 352.659 128.739,352.568 128.445,352.704 127.924 C 352.844 127.387,352.771 127.171,352.505 127.335 C 352.273 127.478,351.975 127.312,351.842 126.965 C 351.479 126.019,351.562 125.722,352.000 126.400 C 352.213 126.730,352.391 126.797,352.394 126.549 C 352.397 126.301,352.130 125.874,351.800 125.600 C 351.470 125.326,351.200 124.842,351.200 124.524 C 351.200 124.207,350.751 123.358,350.202 122.638 C 349.653 121.918,349.297 121.236,349.412 121.122 C 349.526 121.007,349.345 120.686,349.010 120.408 C 348.674 120.130,348.400 119.697,348.400 119.447 C 348.400 119.197,348.033 118.763,347.584 118.483 C 347.136 118.203,346.867 117.815,346.987 117.620 C 347.246 117.202,346.698 115.864,345.587 114.200 C 345.146 113.540,344.569 112.505,344.305 111.900 C 344.041 111.295,343.514 110.800,343.135 110.800 C 342.663 110.800,342.494 110.550,342.599 110.006 C 342.683 109.570,342.528 109.075,342.255 108.906 C 341.982 108.738,341.287 107.700,340.710 106.600 C 340.133 105.500,339.468 104.645,339.231 104.700 C 338.994 104.755,338.841 104.665,338.892 104.500 C 339.064 103.937,337.454 101.643,337.059 101.887 C 336.832 102.028,336.767 101.864,336.906 101.502 C 337.057 101.107,336.783 100.599,336.174 100.141 C 335.638 99.739,335.200 99.189,335.200 98.918 C 335.200 98.648,334.526 97.753,333.703 96.930 C 332.880 96.107,332.475 95.595,332.803 95.793 C 333.316 96.103,333.324 96.059,332.855 95.481 C 332.555 95.111,332.150 94.907,331.955 95.028 C 331.760 95.149,331.600 94.860,331.600 94.386 C 331.600 93.863,331.288 93.443,330.804 93.317 C 330.367 93.203,330.096 92.968,330.202 92.796 C 330.309 92.624,330.023 92.060,329.567 91.542 C 329.112 91.024,328.871 90.853,329.031 91.162 C 329.225 91.535,329.166 91.626,328.855 91.434 C 328.598 91.275,328.474 91.004,328.581 90.831 C 328.687 90.659,328.497 90.176,328.158 89.759 C 327.818 89.342,327.653 89.223,327.791 89.495 C 327.953 89.816,327.831 89.910,327.444 89.762 C 327.116 89.636,326.791 89.147,326.723 88.676 C 326.656 88.205,326.179 87.611,325.664 87.355 C 325.150 87.100,324.891 86.825,325.091 86.745 C 325.290 86.665,323.237 84.384,320.529 81.674 C 317.821 78.965,315.701 77.075,315.817 77.474 C 315.934 77.874,315.728 77.632,315.360 76.939 C 314.992 76.245,314.272 75.453,313.759 75.178 C 313.247 74.904,312.922 74.527,313.037 74.340 C 313.153 74.153,313.057 73.978,312.824 73.950 C 312.591 73.922,312.175 73.869,311.900 73.832 C 311.625 73.794,311.445 73.547,311.500 73.282 C 311.555 73.017,311.330 72.800,311.000 72.800 C 310.670 72.800,310.400 72.609,310.400 72.376 C 310.400 72.143,310.192 72.081,309.938 72.238 C 309.666 72.406,309.584 72.349,309.739 72.098 C 310.077 71.552,307.672 69.508,307.104 69.859 C 306.868 70.005,306.792 69.937,306.934 69.707 C 307.232 69.224,306.256 68.278,305.863 68.670 C 305.718 68.815,305.600 68.713,305.600 68.443 C 305.600 68.173,305.416 68.067,305.190 68.206 C 304.965 68.345,304.830 68.311,304.890 68.130 C 304.951 67.948,304.834 67.710,304.631 67.600 C 304.428 67.490,303.773 66.950,303.175 66.400 C 302.578 65.850,301.844 65.217,301.545 64.994 C 301.245 64.771,300.171 63.916,299.159 63.094 C 298.146 62.272,297.064 61.600,296.755 61.600 C 296.446 61.600,295.960 61.228,295.676 60.773 C 295.392 60.319,294.948 60.017,294.688 60.104 C 294.428 60.191,293.942 59.940,293.608 59.548 C 293.274 59.155,292.730 58.781,292.400 58.717 C 292.070 58.653,291.556 58.273,291.258 57.873 C 290.961 57.473,290.456 57.246,290.138 57.369 C 289.819 57.491,289.656 57.433,289.775 57.241 C 289.894 57.048,289.741 56.683,289.434 56.429 C 289.009 56.076,288.829 56.089,288.670 56.483 C 288.548 56.788,288.450 56.685,288.432 56.233 C 288.414 55.812,288.278 55.588,288.130 55.737 C 287.981 55.886,287.486 55.667,287.030 55.251 C 285.704 54.042,280.792 51.558,280.313 51.854 C 280.051 52.015,279.991 51.938,280.162 51.662 C 280.331 51.388,280.193 51.200,279.824 51.200 C 279.481 51.200,279.200 51.020,279.200 50.800 C 279.200 50.580,279.065 50.429,278.900 50.465 C 278.391 50.574,275.463 49.048,274.248 48.040 C 273.897 47.749,273.329 47.619,272.984 47.751 C 272.574 47.908,272.457 47.831,272.645 47.527 C 272.837 47.216,272.708 47.150,272.250 47.325 C 271.823 47.489,271.482 47.358,271.333 46.970 C 271.203 46.631,270.841 46.452,270.528 46.572 C 270.185 46.704,270.065 46.618,270.227 46.357 C 270.392 46.089,270.208 45.980,269.747 46.071 C 269.336 46.153,268.730 45.900,268.400 45.510 C 268.070 45.119,267.198 44.737,266.461 44.661 C 265.725 44.584,264.980 44.292,264.806 44.010 C 264.632 43.728,264.305 43.612,264.079 43.751 C 263.853 43.891,263.608 43.825,263.534 43.606 C 263.460 43.386,262.918 43.167,262.329 43.119 C 261.740 43.070,261.337 42.901,261.435 42.744 C 261.676 42.354,260.107 41.886,259.604 42.198 C 259.382 42.335,259.200 42.299,259.200 42.118 C 259.200 41.531,256.204 40.472,255.126 40.678 C 254.396 40.817,253.816 40.616,253.214 40.014 C 252.739 39.539,252.140 39.220,251.884 39.305 C 251.627 39.391,251.064 39.132,250.633 38.730 C 249.909 38.056,249.248 37.918,246.334 37.832 C 245.747 37.814,245.117 37.636,244.934 37.436 C 244.736 37.220,244.844 37.203,245.200 37.395 C 245.693 37.660,245.709 37.619,245.290 37.169 C 245.010 36.867,243.993 36.616,243.030 36.610 C 242.067 36.605,241.377 36.441,241.497 36.246 C 241.616 36.052,241.158 35.974,240.478 36.074 C 239.798 36.174,239.321 36.127,239.418 35.970 C 239.679 35.548,237.774 35.158,236.966 35.468 C 236.478 35.656,236.359 35.590,236.570 35.248 C 236.793 34.887,236.369 34.778,234.936 34.829 C 232.171 34.928,231.523 34.848,231.774 34.442 C 231.896 34.245,231.712 33.975,231.365 33.842 C 230.364 33.458,229.928 33.559,230.253 34.100 C 230.482 34.481,230.416 34.494,229.977 34.156 C 229.660 33.912,228.639 33.689,227.710 33.660 C 225.429 33.588,225.077 33.495,224.550 32.822 C 224.199 32.375,222.969 32.238,219.148 32.222 C 216.016 32.208,214.022 32.032,213.714 31.743 C 212.928 31.003,206.777 30.591,206.369 31.251 C 206.102 31.683,205.932 31.692,205.537 31.297 C 204.841 30.601,195.168 30.604,194.430 31.300 C 194.006 31.700,193.863 31.700,193.717 31.300 C 193.607 31.002,192.811 30.800,191.743 30.800 C 190.758 30.800,190.054 30.963,190.177 31.163 M211.200 67.191 C 248.730 70.767,281.907 88.617,304.519 117.400 C 336.609 158.248,342.350 212.978,319.386 259.144 C 296.467 305.219,251.484 333.000,199.800 333.000 C 116.422 333.000,53.832 257.670,69.020 175.600 C 77.582 129.330,110.544 90.604,154.953 74.639 C 159.134 73.136,162.014 72.278,169.225 70.386 C 180.388 67.459,199.078 66.036,211.200 67.191 M368.440 212.285 C 368.056 212.945,368.023 212.936,368.012 212.167 C 367.999 211.241,368.506 210.519,368.720 211.160 C 368.795 211.385,368.669 211.892,368.440 212.285 M212.400 368.400 C 211.612 368.909,210.685 368.909,211.000 368.400 C 211.136 368.180,211.642 368.003,212.124 368.006 C 212.836 368.011,212.888 368.085,212.400 368.400 " stroke="none" fill="#ec3bac" fill-rule="evenodd"></path></g></svg>